<svg id="Capa_1" data-name="Capa 1" xmlns="http://www.w3.org/2000/svg" viewBox="0 0 388 108"><title>Mesa de trabajo 17prospectastudio-logo-dark</title><path d="M36.85,18.83q0,8.15-5.33,12.48T16.34,35.65h-5.4V55.09H2.44v-52h15q9.73,0,14.59,4T36.85,18.83ZM10.94,28.5h4.51q6.54,0,9.6-2.27c2-1.52,3.05-3.89,3.05-7.11,0-3-.91-5.21-2.73-6.68s-4.67-2.21-8.53-2.21h-5.9Z"/><path d="M53.1,34.33V55.09H44.61v-52H59.28q10.06,0,14.9,3.76T79,18.27Q79,28,68.92,32.09l14.67,23H73.93L61.49,34.33Zm0-7H59c4,0,6.82-.73,8.6-2.2s2.67-3.65,2.67-6.54-1-5.05-2.88-6.33-4.81-1.92-8.67-1.92H53.1Z"/><path d="M134.64,29q0,12.69-6.34,19.73t-18,7q-11.76,0-18.07-7T86,29Q86,16.11,92.29,9.2T110.4,2.31q11.59,0,17.91,7T134.64,29ZM95,29q0,9.6,3.87,14.56t11.48,5q7.58,0,11.43-4.91T125.61,29q0-9.55-3.82-14.5T110.4,9.59q-7.64,0-11.53,4.94T95,29Z"/><path d="M173.14,41a13.07,13.07,0,0,1-5,10.87q-5,3.94-13.83,3.95t-14.42-2.74V45a39.13,39.13,0,0,0,7.55,2.63,31.92,31.92,0,0,0,7.44,1q5.06,0,7.45-1.92a6.26,6.26,0,0,0,2.4-5.15,6.45,6.45,0,0,0-2.21-4.94c-1.46-1.36-4.5-3-9.09-4.8s-8.08-4.11-10-6.58a13.9,13.9,0,0,1-2.91-8.88A12.45,12.45,0,0,1,145.1,6.11q4.62-3.74,12.4-3.73a36.45,36.45,0,0,1,14.86,3.27l-2.7,6.93a32.52,32.52,0,0,0-12.37-2.92q-4.12,0-6.25,1.8a5.88,5.88,0,0,0-2.14,4.74,6.69,6.69,0,0,0,.86,3.47,8.59,8.59,0,0,0,2.8,2.72,47.46,47.46,0,0,0,7,3.37A38.3,38.3,0,0,1,168,30.21a13,13,0,0,1,3.91,4.65A14,14,0,0,1,173.14,41Z"/><path d="M215,18.83q0,8.15-5.33,12.48t-15.17,4.34h-5.41V55.09h-8.49v-52h15q9.74,0,14.59,4T215,18.83ZM189.07,28.5h4.52q6.54,0,9.59-2.27t3.06-7.11c0-3-.91-5.21-2.74-6.68s-4.66-2.21-8.53-2.21h-5.9Z"/><path d="M252.13,55.09H222.74v-52h29.39V10.3H231.24V24.45h19.58v7.11H231.24V47.87h20.89Z"/><path d="M282.85,9.66q-7.32,0-11.51,5.19t-4.2,14.33q0,9.56,4,14.46t11.67,4.91a30.61,30.61,0,0,0,6.4-.66q3.09-.66,6.43-1.69v7.29a39,39,0,0,1-13.86,2.31q-11.42,0-17.52-6.92t-6.11-19.77a32,32,0,0,1,3-14.19,21.19,21.19,0,0,1,8.59-9.31,26,26,0,0,1,13.18-3.23,32.73,32.73,0,0,1,14.72,3.34l-3.06,7.07A44.32,44.32,0,0,0,289,10.61,20,20,0,0,0,282.85,9.66Z"/><path d="M324.24,55.09h-8.49V10.41H300.47V3.13h39.06v7.28H324.24Z"/><path d="M371.79,55.09,366.6,40.66H346.73l-5.08,14.43h-9L352.14,2.91h9.24l19.44,52.18Zm-7.43-21.75-4.87-14.15c-.35-1-.85-2.44-1.47-4.48s-1.06-3.53-1.3-4.48a79.85,79.85,0,0,1-2.81,9.56l-4.69,13.55Z"/><path d="M259.26,95a7.29,7.29,0,0,1-3,6.26c-2,1.46-4.84,2.2-8.48,2.2-3.85,0-6.86-.61-9-1.83V97.57a21.65,21.65,0,0,0,4.49,1.67,19.06,19.06,0,0,0,4.62.61,10.49,10.49,0,0,0,5.3-1.1,3.79,3.79,0,0,0,.39-6.26,23.25,23.25,0,0,0-5.74-2.84A31.38,31.38,0,0,1,242.05,87a7.87,7.87,0,0,1-2.55-2.56,6.72,6.72,0,0,1-.83-3.42,6.51,6.51,0,0,1,2.89-5.6q2.88-2.06,7.92-2.05a23.22,23.22,0,0,1,9.17,1.9l-1.57,3.58a21,21,0,0,0-7.92-1.8,9.18,9.18,0,0,0-4.72,1,3,3,0,0,0-1.59,2.7,3.28,3.28,0,0,0,.6,2,5.85,5.85,0,0,0,1.92,1.56,43,43,0,0,0,5.09,2.15c3.44,1.25,5.77,2.52,7,3.79A6.68,6.68,0,0,1,259.26,95Z"/><path d="M274.71,99.85a15.08,15.08,0,0,0,2.25-.17,16.5,16.5,0,0,0,1.72-.36v3.36a8.06,8.06,0,0,1-2.11.57,15.78,15.78,0,0,1-2.5.23q-8.43,0-8.43-8.88V77.32h-4.16V75.2l4.16-1.82,1.86-6.2H270v6.73h8.43v3.41H270v17.1a5.87,5.87,0,0,0,1.25,4A4.33,4.33,0,0,0,274.71,99.85Z"/><path d="M287.53,73.91V92.75a7.59,7.59,0,0,0,1.62,5.3c1.08,1.16,2.76,1.74,5.06,1.74q4.56,0,6.66-2.49T303,89.17V73.91h4.4v29h-3.63l-.64-3.9h-.23a8.89,8.89,0,0,1-3.75,3.29,12.64,12.64,0,0,1-5.48,1.14q-5.29,0-7.93-2.52t-2.64-8v-19Z"/><path d="M335.39,99.05h-.24q-3,4.42-9.11,4.43a10.79,10.79,0,0,1-8.87-3.9C315.06,97,314,93.29,314,88.51s1.06-8.51,3.18-11.16a10.7,10.7,0,0,1,8.85-4,10.57,10.57,0,0,1,9.06,4.29h.34l-.18-2.09-.11-2V61.72h4.4V103H336Zm-8.8.74c3,0,5.18-.81,6.53-2.45s2-4.27,2-7.91v-.92q0-6.18-2-8.81t-6.56-2.64a6.72,6.72,0,0,0-5.92,3q-2.06,3-2.06,8.49t2,8.4A6.91,6.91,0,0,0,326.59,99.79Z"/><path d="M347.42,66a3,3,0,0,1,.74-2.22,2.65,2.65,0,0,1,1.86-.7,2.61,2.61,0,0,1,1.83.72,2.86,2.86,0,0,1,.76,2.2,2.92,2.92,0,0,1-.76,2.21A2.62,2.62,0,0,1,350,69a2.59,2.59,0,0,1-1.86-.73A3,3,0,0,1,347.42,66ZM352.19,103h-4.4v-29h4.4Z"/><path d="M385.5,88.4q0,7.09-3.58,11.09t-9.88,4a13.1,13.1,0,0,1-6.92-1.83,12.06,12.06,0,0,1-4.66-5.25,18.2,18.2,0,0,1-1.64-8q0-7.09,3.55-11.06t9.85-4a12.29,12.29,0,0,1,9.69,4.05Q385.5,81.48,385.5,88.4Zm-22.13,0c0,3.71.75,6.54,2.23,8.48a8.84,8.84,0,0,0,13.1,0c1.5-1.93,2.24-4.76,2.24-8.49s-.74-6.5-2.24-8.41a7.85,7.85,0,0,0-6.61-2.88A7.75,7.75,0,0,0,365.57,80C364.11,81.84,363.37,84.66,363.37,88.4Z"/><circle cx="13.19" cy="85.55" r="7.75"/><circle cx="54.1" cy="85.55" r="7.75"/><circle cx="95.02" cy="85.55" r="7.75"/><circle cx="135.51" cy="85.55" r="7.75"/><circle cx="176.42" cy="85.55" r="7.75"/><circle cx="217.34" cy="85.55" r="7.75"/></svg>